# xmcd
#
# Track frame offsets:
#	183
#	12595
#	33070
#	55370
#	76133
#	90120
#	102245
#	119420
#	126045
#	138583
#	146358
#	164020
#	185008
#	195333
#	215183
#	235333
#	254633
#	269108
#	282133
#
# Disc length: 4112 seconds
#
# Revision: 0
# Processed by: cddbd v1.4PL0 Copyright (c) Steve Scherf et al.
# Submitted via: EasyCDDAExtractor 4.6.0.1
#
DISCID=1a100e13
DTITLE=Gino Paoli - '89 dal vivo
DYEAR=1991
DGENRE=Leggera
TTITLE0=Il Fantasma Blu
TTITLE1=Bambino Io Bambino Tu
TTITLE2=A Mirandola
TTITLE3=Io Ci Sarò
TTITLE4=Vivere Ancora
TTITLE5=La Gatta
TTITLE6=Averti Addosso
TTITLE7=Il Vento Dell'est - Featuring Ricky Gianco
TTITLE8=Sapore Di Sale - Featuring Ricky Gianco
TTITLE9=Vai Vai Via (Bye Bye Love) - Featuring Ricky Gianco
TTITLE10=Parigi Con Le Gambe Aperte - Featuring Ricky Gianco
TTITLE11=L'ufficio Delle Cose Perdute
TTITLE12=Come Si Fa
TTITLE13=Uomini Piccoli
TTITLE14=Questione Di Sopravvivenza
TTITLE15=Questa Volta No
TTITLE16=Una Lunga Storia D'amore
TTITLE17=Il Cielo In Una Stanza
TTITLE18=Cosa Farò Da Grande
EXTD=
EXTT0=
EXTT1=
EXTT2=
EXTT3=
EXTT4=
EXTT5=
EXTT6=
EXTT7=
EXTT8=
EXTT9=
EXTT10=
EXTT11=
EXTT12=
EXTT13=
EXTT14=
EXTT15=
EXTT16=
EXTT17=
EXTT18=
PLAYORDER=
